<?xml version="1.0" standalone="no"?>
<!DOCTYPE svg PUBLIC "-//W3C//DTD SVG 20010904//EN"
 "http://www.w3.org/TR/2001/REC-SVG-20010904/DTD/svg10.dtd">
<svg version="1.0" xmlns="http://www.w3.org/2000/svg"
 width="192.000000pt" height="192.000000pt" viewBox="0 0 192.000000 192.000000"
 preserveAspectRatio="xMidYMid meet">
<metadata>
Created by potrace 1.16, written by Peter Selinger 2001-2019
</metadata>
<g transform="translate(0.000000,192.000000) scale(0.100000,-0.100000)"
fill="#000000" stroke="none">
<path d="M0 960 l0 -960 960 0 960 0 0 960 0 960 -960 0 -960 0 0 -960z m763
310 c-2 -13 27 -15 197 -15 170 0 199 2 197 15 -4 25 28 21 40 -5 10 -23 9
-26 -5 -24 -9 1 -41 1 -69 0 l-53 -1 0 -179 0 -178 -56 -21 -57 -21 -51 20
c-28 12 -54 26 -58 32 -5 7 -8 85 -7 175 0 90 -1 165 -3 168 -3 2 -32 4 -65 5
-59 2 -60 2 -49 25 12 26 43 28 39 4z m-191 -472 c-16 -16 -15 -28 3 -28 9 0
20 10 25 23 5 13 9 16 9 7 1 -21 -19 -40 -40 -40 -10 0 -19 -8 -21 -17 -3 -12
-6 -9 -10 10 -3 15 -3 25 0 22 3 -2 11 4 19 15 8 11 17 20 21 20 3 0 1 -5 -6
-12z m582 -79 c-2 -29 -7 -55 -10 -58 -4 -3 -4 9 -1 27 8 38 -4 42 -27 8 -18
-29 -54 -42 -69 -27 -7 7 -14 7 -24 0 -17 -14 -31 17 -15 33 8 8 9 5 5 -11 -8
-32 4 -25 33 19 15 22 31 40 36 40 5 0 0 -12 -11 -26 -45 -57 -10 -76 40 -22
16 18 29 40 29 50 0 10 4 18 9 18 5 0 7 -23 5 -51z m274 15 c0 -21 -3 -33 -7
-28 -3 5 -9 11 -12 14 -7 5 7 50 15 50 2 0 4 -16 4 -36z m-126 8 c-16 -5 -45
-62 -37 -70 4 -4 23 12 43 36 27 31 42 41 55 37 9 -4 17 -13 17 -20 0 -20 -40
-65 -58 -64 -12 0 -9 3 7 10 16 6 22 15 18 28 -3 14 -1 18 9 14 8 -3 14 -1 14
5 0 24 -31 20 -47 -6 -10 -15 -24 -32 -32 -38 -14 -11 -116 -13 -126 -2 -3 2
5 20 18 39 15 22 32 35 50 37 l28 3 -16 -31 c-9 -17 -14 -37 -12 -43 4 -12 33
28 39 53 4 20 19 30 32 23 6 -4 5 -8 -2 -11z m-678 2 c22 -8 20 -26 -5 -58
-20 -26 -49 -35 -49 -16 0 5 6 7 13 4 17 -6 42 22 28 30 -6 4 -8 13 -4 21 9
25 -6 16 -21 -12 -8 -16 -15 -23 -16 -18 0 11 28 55 35 55 2 0 10 -3 19 -6z
m86 -12 c0 -15 -2 -15 -10 -2 -9 13 -13 12 -28 -6 -9 -12 -22 -30 -29 -40 -7
-11 -5 -1 3 21 12 31 21 41 40 43 17 1 24 -3 24 -16z m90 8 c0 -5 -7 -7 -15
-3 -9 3 -26 -3 -38 -13 l-22 -19 19 23 c19 22 56 30 56 12z m90 3 c-1 -5 -7
-19 -15 -33 -25 -44 -15 -46 23 -5 20 23 32 34 26 25 -19 -25 -27 -60 -14 -60
23 0 48 20 60 50 14 34 60 44 60 13 0 -16 -2 -16 -10 -3 -9 13 -13 11 -31 -9
-11 -13 -24 -31 -28 -39 -5 -9 -25 -16 -54 -17 -27 0 -54 -8 -65 -18 -21 -19
-32 -22 -32 -6 0 5 6 7 13 3 6 -4 4 1 -5 12 -17 17 -19 17 -47 -4 -35 -26 -60
-30 -41 -7 10 12 9 16 -2 20 -8 3 -21 5 -28 3 -7 -2 -14 3 -15 10 -2 7 -1 8 2
2 3 -7 12 -5 24 6 17 16 19 16 19 1 0 -25 16 -21 39 9 22 29 28 25 11 -7 -17
-30 7 -23 27 9 9 15 23 33 32 40 16 13 51 17 51 5z m210 -28 c-7 -8 -18 -15
-24 -15 -6 0 -3 5 7 11 9 5 17 18 18 27 0 11 2 12 6 4 3 -7 -1 -19 -7 -27z
m-574 14 c3 -6 -1 -17 -10 -25 -9 -8 -11 -9 -6 -2 23 28 2 39 -24 12 -9 -8
-16 -11 -16 -5 0 10 28 30 42 31 4 0 10 -5 14 -11z m434 -3 c0 -2 -8 -10 -17
-17 -16 -13 -17 -12 -4 4 13 16 21 21 21 13z m-420 -51 c-7 -8 -18 -15 -24
-15 -6 0 -3 5 7 11 9 5 17 18 18 27 0 11 2 12 6 4 3 -7 -1 -19 -7 -27z m898 7
c15 12 16 11 3 -4 -7 -10 -17 -18 -22 -18 -5 0 -9 8 -8 18 0 11 2 12 6 4 4
-10 8 -10 21 0z m-943 -20 c-3 -3 -11 0 -18 7 -9 10 -8 11 6 5 10 -3 15 -9 12
-12z"/>
<path d="M1008 1123 c7 -3 16 -2 19 1 4 3 -2 6 -13 5 -11 0 -14 -3 -6 -6z"/>
<path d="M962 1093 c-6 -2 -10 -9 -6 -14 8 -14 21 -11 21 6 0 8 -1 15 -1 14
-1 0 -7 -3 -14 -6z"/>
<path d="M899 1034 c-13 -16 -12 -16 8 -3 25 15 46 4 23 -12 -13 -9 -13 -10 0
-6 8 2 15 10 15 18 0 20 -30 22 -46 3z"/>
<path d="M918 973 c7 -3 16 -2 19 1 4 3 -2 6 -13 5 -11 0 -14 -3 -6 -6z"/>
<path d="M1196 718 c-18 -25 -21 -48 -7 -48 11 0 51 48 51 61 0 17 -29 9 -44
-13z"/>
<path d="M615 720 c-3 -5 -1 -10 4 -10 6 0 11 5 11 10 0 6 -2 10 -4 10 -3 0
-8 -4 -11 -10z"/>
<path d="M844 732 c-11 -7 -34 -45 -34 -56 0 -15 31 -4 44 16 25 36 19 60 -10
40z"/>
</g>
</svg>
