<?xml version="1.0" standalone="no"?>
<!DOCTYPE svg PUBLIC "-//W3C//DTD SVG 20010904//EN"
 "http://www.w3.org/TR/2001/REC-SVG-20010904/DTD/svg10.dtd">
<svg version="1.0" xmlns="http://www.w3.org/2000/svg"
 width="192.000000pt" height="192.000000pt" viewBox="0 0 192.000000 192.000000"
 preserveAspectRatio="xMidYMid meet">

<g transform="translate(0.000000,192.000000) scale(0.100000,-0.100000)"
fill="#000000" stroke="none">
<path d="M724 1265 c-10 -21 -9 -24 5 -23 9 1 40 0 69 0 l52 -2 0 -179 0 -178
54 -21 54 -20 56 20 56 21 0 178 0 179 53 2 c28 0 59 1 68 0 14 -1 15 2 5 23
-12 26 -43 30 -39 5 2 -13 -27 -15 -197 -15 -170 0 -199 2 -197 15 4 25 -27
21 -39 -5z m306 -152 c0 -10 -4 -14 -8 -8 -4 6 -11 13 -16 18 -5 4 -2 7 7 7
10 0 17 -8 17 -17z m-45 -30 c3 -10 -1 -13 -12 -11 -9 2 -18 8 -20 14 -5 16
25 13 32 -3z m-40 -52 c0 -8 -6 -15 -13 -17 -7 -1 -8 0 -2 3 15 7 12 23 -5 23
-7 0 -19 -8 -24 -17 -6 -10 -11 -13 -11 -7 0 16 23 35 40 32 8 -2 15 -10 15
-17z m-8 -57 c-3 -3 -12 -4 -19 -1 -8 3 -5 6 6 6 11 1 17 -2 13 -5z"/>
<path d="M559 793 c-13 -16 -12 -17 4 -4 16 13 21 21 13 21 -2 0 -10 -8 -17
-17z"/>
<path d="M597 791 c-4 -17 -3 -21 5 -13 5 5 8 16 6 23 -3 8 -7 3 -11 -10z"/>
<path d="M537 765 c3 -8 9 -12 14 -9 12 7 11 11 -5 17 -10 4 -13 1 -9 -8z"/>
<path d="M1136 738 l-16 -33 20 24 c11 13 20 27 20 32 0 17 -9 9 -24 -23z"/>
<path d="M1413 753 c-3 -10 -8 -22 -10 -28 -3 -5 3 -1 11 9 16 20 21 36 11 36
-3 0 -8 -8 -12 -17z"/>
<path d="M1285 752 c-6 -4 -11 -13 -13 -21 -3 -12 -1 -12 15 -1 10 8 19 15 21
16 2 1 -1 4 -5 7 -5 3 -13 3 -18 -1z"/>
<path d="M588 731 c-11 -14 -11 -14 3 -3 14 10 20 10 33 -3 13 -14 16 -14 16
-2 0 22 -37 28 -52 8z"/>
<path d="M666 734 c-22 -21 -20 -31 2 -12 9 9 24 18 32 21 12 4 12 6 -2 6 -9
1 -24 -6 -32 -15z"/>
<path d="M744 728 l-19 -23 22 19 c12 10 29 16 38 13 8 -4 15 -2 15 3 0 18
-37 10 -56 -12z"/>
<path d="M856 743 c5 -5 12 -12 15 -16 3 -5 9 -2 12 7 5 12 0 16 -15 16 -12 0
-17 -3 -12 -7z"/>
<path d="M919 733 c-13 -16 -12 -17 4 -4 9 7 17 15 17 17 0 8 -8 3 -21 -13z"/>
<path d="M984 736 c-10 -8 -16 -17 -13 -20 3 -3 14 3 24 14 21 23 17 26 -11 6z"/>
<path d="M1021 734 c0 -11 3 -14 6 -6 3 7 2 16 -1 19 -3 4 -6 -2 -5 -13z"/>
<path d="M1229 741 c8 -5 10 -14 6 -22 -6 -11 -5 -11 5 -2 14 12 6 33 -13 33
-8 0 -7 -3 2 -9z"/>
<path d="M1329 732 c-11 -14 -11 -15 1 -5 9 8 19 9 32 2 10 -5 18 -7 18 -5 0
3 -9 10 -19 15 -14 8 -22 7 -32 -7z"/>
<path d="M516 713 c-6 -14 -5 -15 5 -6 7 7 10 15 7 18 -3 3 -9 -2 -12 -12z"/>
<path d="M939 713 c-13 -16 -12 -17 4 -4 16 13 21 21 13 21 -2 0 -10 -8 -17
-17z"/>
<path d="M1036 694 c-14 -20 -20 -23 -27 -13 -6 10 -9 10 -9 2 0 -17 17 -25
25 -13 5 8 11 7 21 -1 8 -6 17 -9 21 -5 3 3 1 6 -6 6 -9 0 -11 8 -7 25 8 31 6
31 -18 -1z"/>
<path d="M613 703 c9 -15 -19 -36 -35 -27 -10 6 -11 4 0 -7 10 -11 16 -10 33
8 16 15 18 22 8 28 -7 5 -10 4 -6 -2z"/>
<path d="M852 690 c-13 -21 -42 -28 -42 -9 0 5 -5 7 -12 3 -8 -5 -5 -11 10
-17 12 -6 22 -14 22 -19 0 -5 -4 -6 -10 -3 -5 3 -10 1 -10 -4 0 -17 12 -13 45
15 17 15 24 23 16 19 -10 -6 -11 -2 -6 14 8 26 3 27 -13 1z"/>
<path d="M894 695 c-8 -19 4 -35 24 -34 14 1 14 2 -1 6 -13 3 -17 11 -14 24 6
22 -1 26 -9 4z"/>
<path d="M1171 691 c-8 -15 -7 -20 6 -25 9 -4 18 -4 21 -1 3 3 0 5 -7 5 -8 0
-11 8 -8 20 6 25 1 26 -12 1z"/>
<path d="M1251 688 c-13 -22 -14 -22 -21 -4 -6 18 -7 18 -13 3 -3 -9 -3 -17 1
-18 4 0 16 -2 27 -3 15 -2 20 4 21 21 2 28 2 28 -15 1z"/>
<path d="M1343 684 c-12 -13 -18 -24 -14 -24 10 0 45 39 40 44 -2 3 -14 -6
-26 -20z"/>
<path d="M531 677 c-13 -21 -12 -21 5 -5 10 10 16 20 13 22 -3 3 -11 -5 -18
-17z"/>
<path d="M711 686 c-11 -13 -16 -14 -22 -4 -6 9 -9 9 -9 1 0 -17 17 -25 25
-13 9 14 35 -7 35 -27 0 -8 5 -11 11 -8 6 4 8 13 5 21 -3 7 0 11 7 8 8 -3 13
4 14 17 2 20 1 20 -16 5 -22 -20 -29 -20 -33 1 -3 15 -4 15 -17 -1z"/>
<path d="M950 685 c-7 -9 -8 -15 -2 -15 5 0 12 7 16 15 3 8 4 15 2 15 -2 0 -9
-7 -16 -15z"/>
</g>
</svg>
